<svg width="18" height="18" viewBox="0 0 18 18" fill="none" xmlns="http://www.w3.org/2000/svg">
<g clip-path="url(#clip0_2063_2155)">
<path d="M16.5 6.75H9.75V11.25H16.5C17.325 11.25 18 10.575 18 9.75V8.25C18 7.425 17.325 6.75 16.5 6.75ZM17.25 9.75C17.25 10.1625 16.9125 10.5 16.5 10.5H10.5V7.5H16.5C16.9125 7.5 17.25 7.8375 17.25 8.25V9.75ZM16.5 0H9.75V4.5H16.5C17.325 4.5 18 3.825 18 3V1.5C18 0.675 17.325 0 16.5 0ZM17.25 3C17.25 3.4125 16.9125 3.75 16.5 3.75H10.5V0.75H16.5C16.9125 0.75 17.25 1.0875 17.25 1.5V3ZM16.5 13.5H9.75V18H16.5C17.325 18 18 17.325 18 16.5V15C18 14.175 17.325 13.5 16.5 13.5ZM17.25 16.5C17.25 16.9125 16.9125 17.25 16.5 17.25H10.5V14.25H16.5C16.9125 14.25 17.25 14.5875 17.25 15V16.5ZM6.375 9.75H1.875C0.84 9.75 0 10.59 0 11.625V18H8.25V11.625C8.25 10.59 7.41 9.75 6.375 9.75ZM7.5 17.25H0.75V11.625C0.75 11.0025 1.2525 10.5 1.875 10.5H6.375C6.9975 10.5 7.5 11.0025 7.5 11.625V17.25ZM6.375 0H1.875C0.84 0 0 0.84 0 1.875V8.25H8.25V1.875C8.25 0.84 7.41 0 6.375 0ZM7.5 7.5H0.75V1.875C0.75 1.2525 1.2525 0.75 1.875 0.75H6.375C6.9975 0.75 7.5 1.2525 7.5 1.875V7.5Z" fill="#0A1A5C"/>
</g>
<defs>
<clipPath id="clip0_2063_2155">
<rect width="18" height="18" fill="white"/>
</clipPath>
</defs>
</svg>
