<svg width="18" height="18" viewBox="0 0 18 18" fill="none" xmlns="http://www.w3.org/2000/svg">
<path d="M16.5 6.75H9.75V11.25H16.5C17.325 11.25 18 10.575 18 9.75V8.25C18 7.425 17.325 6.75 16.5 6.75ZM16.5 0H9.75V4.5H16.5C17.325 4.5 18 3.825 18 3V1.5C18 0.675 17.325 0 16.5 0ZM16.5 13.5H9.75V18H16.5C17.325 18 18 17.325 18 16.5V15C18 14.175 17.325 13.5 16.5 13.5ZM6 9.75H2.25C1.0125 9.75 0 10.7625 0 12V18H8.25V12C8.25 10.7625 7.2375 9.75 6 9.75ZM6 0H2.25C1.0125 0 0 1.0125 0 2.25V8.25H8.25V2.25C8.25 1.0125 7.2375 0 6 0Z" fill="white"/>
</svg>
